<svg xmlns="http://www.w3.org/2000/svg" viewBox="0 0 220 220" width="220" height="220">
  <defs>
    <linearGradient id="bg" x1="0" y1="0" x2="1" y2="1">
      <stop offset="0%" stop-color="#241b30"/>
      <stop offset="100%" stop-color="#503b6a"/>
    </linearGradient>
    <linearGradient id="glass" x1="0" y1="0" x2="1" y2="1">
      <stop offset="0%" stop-color="#ffffff" stop-opacity="0.18"/>
      <stop offset="100%" stop-color="#ffffff" stop-opacity="0.02"/>
    </linearGradient>
    <filter id="shadow" x="-20%" y="-20%" width="140%" height="140%">
      <feDropShadow dx="0" dy="6" stdDeviation="8" flood-color="#000" flood-opacity="0.25"/>
    </filter>
  </defs>
  <rect width="220" height="220" rx="24" fill="url(#bg)"/>
  <rect width="220" height="220" rx="24" fill="url(#glass)"/>
  <rect y="158" width="220" height="62" fill="#111" opacity="0.18"/><circle cx="51.040000000000006" cy="116.16000000000001" r="5.279999999999999" fill="#ffcf6b"/><rect x="46.64000000000001" y="122.32000000000002" width="8.8" height="12.32" rx="10" fill="#98e0ff"/><circle cx="70.4" cy="116.16000000000001" r="5.279999999999999" fill="#8fd3ff"/><rect x="66.0" y="122.32000000000002" width="8.8" height="12.32" rx="10" fill="#f3c96c"/><circle cx="89.76" cy="116.16000000000001" r="5.279999999999999" fill="#ff8ac5"/><rect x="85.36" y="122.32000000000002" width="8.8" height="12.32" rx="10" fill="#b6e388"/><path d="M 123.20000000000002 61.60000000000001 h 39.6 v 39.6 h -39.6 z" fill="none" stroke="#f5b642" stroke-width="10" stroke-linecap="round" stroke-linejoin="round"/><line x1="123.20000000000002" y1="101.2" x2="162.8" y2="61.60000000000001" stroke="#7ce3cf" stroke-width="8" stroke-linecap="round"/><line x1="123.20000000000002" y1="61.60000000000001" x2="162.8" y2="101.2" stroke="#ff8ac5" stroke-width="8" stroke-linecap="round"/>
</svg>