<svg xmlns="http://www.w3.org/2000/svg" viewBox="0 0 800 400" width="800" height="400">
  <defs>
    <linearGradient id="bg" x1="0" y1="0" x2="1" y2="1">
      <stop offset="0%" stop-color="#193529"/>
      <stop offset="100%" stop-color="#2e5d46"/>
    </linearGradient>
    <linearGradient id="glass" x1="0" y1="0" x2="1" y2="1">
      <stop offset="0%" stop-color="#ffffff" stop-opacity="0.18"/>
      <stop offset="100%" stop-color="#ffffff" stop-opacity="0.02"/>
    </linearGradient>
    <filter id="shadow" x="-20%" y="-20%" width="140%" height="140%">
      <feDropShadow dx="0" dy="6" stdDeviation="8" flood-color="#000" flood-opacity="0.25"/>
    </filter>
  </defs>
  <rect width="800" height="400" rx="24" fill="url(#bg)"/>
  <rect width="800" height="400" rx="24" fill="url(#glass)"/>
  <rect y="296" width="800" height="104" fill="#111" opacity="0.18"/><rect x="173.12" y="240.0" width="5.76" height="18.72" rx="6" fill="#7a4a26"/><circle cx="176.0" cy="237.12" r="12.959999999999999" fill="#5dcc83"/><circle cx="167.36" cy="241.44" r="10.080000000000002" fill="#78d47a"/><circle cx="184.64" cy="241.44" r="10.080000000000002" fill="#78d47a"/><rect x="268.64" y="231.99999999999997" width="6.72" height="21.84" rx="6" fill="#7a4a26"/><circle cx="272.0" cy="228.63999999999996" r="15.12" fill="#5dcc83"/><circle cx="261.92" cy="233.67999999999998" r="11.760000000000002" fill="#78d47a"/><circle cx="282.08" cy="233.67999999999998" r="11.760000000000002" fill="#78d47a"/><path d="M 80.0 280.0 q 96.0 -32.0 192.0 0 t 192.0 0 t 192.0 0" fill="#3b8f5a" opacity="0.85"/><circle cx="560.0" cy="184.0" r="24.2" fill="#ffffff"/><circle cx="542.4" cy="166.4" r="8.8" fill="#ffffff"/><circle cx="577.6" cy="166.4" r="8.8" fill="#ffffff"/><circle cx="552.3" cy="181.8" r="2.2" fill="#1c2430"/><circle cx="567.7" cy="181.8" r="2.2" fill="#1c2430"/><circle cx="560.0" cy="190.6" r="3.3" fill="#1c2430"/><ellipse cx="576.0" cy="272.0" rx="120" ry="26" fill="#d7ecff" opacity="0.6"/>
</svg>