<svg xmlns="http://www.w3.org/2000/svg" viewBox="0 0 800 400" width="800" height="400">
  <defs>
    <linearGradient id="bg" x1="0" y1="0" x2="1" y2="1">
      <stop offset="0%" stop-color="#193529"/>
      <stop offset="100%" stop-color="#2e5d46"/>
    </linearGradient>
    <linearGradient id="glass" x1="0" y1="0" x2="1" y2="1">
      <stop offset="0%" stop-color="#ffffff" stop-opacity="0.18"/>
      <stop offset="100%" stop-color="#ffffff" stop-opacity="0.02"/>
    </linearGradient>
    <filter id="shadow" x="-20%" y="-20%" width="140%" height="140%">
      <feDropShadow dx="0" dy="6" stdDeviation="8" flood-color="#000" flood-opacity="0.25"/>
    </filter>
  </defs>
  <rect width="800" height="400" rx="24" fill="url(#bg)"/>
  <rect width="800" height="400" rx="24" fill="url(#glass)"/>
  <rect y="288" width="800" height="112" fill="#111" opacity="0.18"/><polygon points="204.0,252.99999999999997 264.0,177.99999999999997 324.0,252.99999999999997" fill="#6bb06e"/><polygon points="164.0,263.0 229.0,207.99999999999997 284.0,263.0" fill="#4a8054"/><polygon points="274.0,263.0 339.0,199.99999999999997 399.0,263.0" fill="#82c98a"/><path d="M 96.0 272.0 q 128.0 -32.0 256.0 0 t 256.0 0 t 256.0 0" fill="#68b870"/><path d="M 360.0 264.0 q 40.0 24.0 64.0 72.0 h 64.0 q -24.0 -52.0 -48.0 -72.0 z" fill="#7ddcff"/><circle cx="640.0" cy="88.0" r="36" fill="#ffd064"/>
</svg>