<svg xmlns="http://www.w3.org/2000/svg" viewBox="0 0 800 400" width="800" height="400">
  <defs>
    <linearGradient id="bg" x1="0" y1="0" x2="1" y2="1">
      <stop offset="0%" stop-color="#5a3010"/>
      <stop offset="100%" stop-color="#d67a2b"/>
    </linearGradient>
    <linearGradient id="glass" x1="0" y1="0" x2="1" y2="1">
      <stop offset="0%" stop-color="#ffffff" stop-opacity="0.18"/>
      <stop offset="100%" stop-color="#ffffff" stop-opacity="0.02"/>
    </linearGradient>
    <filter id="shadow" x="-20%" y="-20%" width="140%" height="140%">
      <feDropShadow dx="0" dy="6" stdDeviation="8" flood-color="#000" flood-opacity="0.25"/>
    </filter>
  </defs>
  <rect width="800" height="400" rx="24" fill="url(#bg)"/>
  <rect width="800" height="400" rx="24" fill="url(#glass)"/>
  <rect y="288" width="800" height="112" fill="#111" opacity="0.14"/><polygon points="200.0,256.0 264.0,168.0 328.0,256.0" fill="#ffffff"/><rect x="231.99999999999997" y="184.0" width="64.0" height="72.0" rx="4" fill="#f7d995"/><rect x="224.00000000000003" y="224.00000000000003" width="80.0" height="32.0" rx="4" fill="#b87333"/><rect x="440.00000000000006" y="176.0" width="144.0" height="64.0" rx="8" fill="#f2e4ca"/><circle cx="512.0" cy="168.0" r="48" fill="none" stroke="#f5b642" stroke-width="10"/><line x1="512.0" y1="136.0" x2="512.0" y2="248.0" stroke="#f5b642" stroke-width="6" stroke-linecap="round"/><circle cx="345.2" cy="256.8" r="8.4" fill="#ffcf6b"/><rect x="338.2" y="266.6" width="14.0" height="19.6" rx="10" fill="#98e0ff"/><circle cx="376.0" cy="256.8" r="8.4" fill="#8fd3ff"/><rect x="369.0" y="266.6" width="14.0" height="19.6" rx="10" fill="#f3c96c"/><circle cx="406.8" cy="256.8" r="8.4" fill="#ff8ac5"/><rect x="399.8" y="266.6" width="14.0" height="19.6" rx="10" fill="#b6e388"/>
</svg>