<svg xmlns="http://www.w3.org/2000/svg" viewBox="0 0 220 220" width="220" height="220">
  <defs>
    <linearGradient id="bg" x1="0" y1="0" x2="1" y2="1">
      <stop offset="0%" stop-color="#241b30"/>
      <stop offset="100%" stop-color="#503b6a"/>
    </linearGradient>
    <linearGradient id="glass" x1="0" y1="0" x2="1" y2="1">
      <stop offset="0%" stop-color="#ffffff" stop-opacity="0.18"/>
      <stop offset="100%" stop-color="#ffffff" stop-opacity="0.02"/>
    </linearGradient>
    <filter id="shadow" x="-20%" y="-20%" width="140%" height="140%">
      <feDropShadow dx="0" dy="6" stdDeviation="8" flood-color="#000" flood-opacity="0.25"/>
    </filter>
  </defs>
  <rect width="220" height="220" rx="24" fill="url(#bg)"/>
  <rect width="220" height="220" rx="24" fill="url(#glass)"/>
  <rect y="167" width="220" height="53" fill="#111" opacity="0.18"/><path d="M 44.80000000000001 108.4 q 10.799999999999999 -13.2 22.8 0 l 10.799999999999999 10.799999999999999 q -6.0 10.799999999999999 -15.600000000000001 10.799999999999999 h -9.6 q -8.4 0 -10.799999999999999 -8.4 z" fill="#79bada"/><path d="M 104.80000000000001 108.4 q -10.799999999999999 -13.2 -22.8 0 l -10.799999999999999 10.799999999999999 q 6.0 10.799999999999999 15.600000000000001 10.799999999999999 h 9.6 q 8.4 0 10.799999999999999 -8.4 z" fill="#f3c96c"/><rect x="65.20000000000002" y="113.2" width="19.2" height="8.4" rx="12" fill="#f1d1b5"/><circle cx="144.32" cy="116.16000000000001" r="5.279999999999999" fill="#8fd3ff"/><rect x="139.92" y="122.32000000000002" width="8.8" height="12.32" rx="10" fill="#98e0ff"/><circle cx="163.68" cy="116.16000000000001" r="5.279999999999999" fill="#ffcf6b"/><rect x="159.28" y="122.32000000000002" width="8.8" height="12.32" rx="10" fill="#f3c96c"/>
</svg>