<svg xmlns="http://www.w3.org/2000/svg" viewBox="0 0 800 400" width="800" height="400">
  <defs>
    <linearGradient id="bg" x1="0" y1="0" x2="1" y2="1">
      <stop offset="0%" stop-color="#1d3047"/>
      <stop offset="100%" stop-color="#294f73"/>
    </linearGradient>
    <linearGradient id="glass" x1="0" y1="0" x2="1" y2="1">
      <stop offset="0%" stop-color="#ffffff" stop-opacity="0.18"/>
      <stop offset="100%" stop-color="#ffffff" stop-opacity="0.02"/>
    </linearGradient>
    <filter id="shadow" x="-20%" y="-20%" width="140%" height="140%">
      <feDropShadow dx="0" dy="6" stdDeviation="8" flood-color="#000" flood-opacity="0.25"/>
    </filter>
  </defs>
  <rect width="800" height="400" rx="24" fill="url(#bg)"/>
  <rect width="800" height="400" rx="24" fill="url(#glass)"/>
  <rect y="312" width="800" height="88" fill="#111" opacity="0.14"/><circle cx="176.0" cy="209.60000000000002" r="10.799999999999999" fill="#8fd3ff"/><rect x="167.0" y="222.20000000000002" width="18.0" height="25.200000000000003" rx="10" fill="#98e0ff"/><rect x="330.0" y="204.0" width="108.0" height="72.0" rx="10" fill="#e7eef7" stroke="#27405d" stroke-width="4"/><rect x="362.4" y="182.4" width="43.199999999999996" height="8.4" rx="6" fill="#27405d"/><polygon points="393.6,156.0 429.6,194.4 402.0,213.6 367.2,175.2" fill="#ffffff" stroke="#2b5790" stroke-width="3"/><rect x="373.2" y="219.6" width="21.599999999999998" height="28.799999999999997" rx="3" fill="#27405d"/><circle cx="592.0" cy="209.60000000000002" r="10.799999999999999" fill="#ff8ac5"/><rect x="583.0" y="222.20000000000002" width="18.0" height="25.200000000000003" rx="10" fill="#98e0ff"/>
</svg>