<svg xmlns="http://www.w3.org/2000/svg" viewBox="0 0 800 400" width="800" height="400">
  <defs>
    <linearGradient id="bg" x1="0" y1="0" x2="1" y2="1">
      <stop offset="0%" stop-color="#0e2740"/>
      <stop offset="100%" stop-color="#115a8b"/>
    </linearGradient>
    <linearGradient id="glass" x1="0" y1="0" x2="1" y2="1">
      <stop offset="0%" stop-color="#ffffff" stop-opacity="0.18"/>
      <stop offset="100%" stop-color="#ffffff" stop-opacity="0.02"/>
    </linearGradient>
    <filter id="shadow" x="-20%" y="-20%" width="140%" height="140%">
      <feDropShadow dx="0" dy="6" stdDeviation="8" flood-color="#000" flood-opacity="0.25"/>
    </filter>
  </defs>
  <rect width="800" height="400" rx="24" fill="url(#bg)"/>
  <rect width="800" height="400" rx="24" fill="url(#glass)"/>
  <rect y="292" width="800" height="108" fill="#111" opacity="0.18"/><rect x="152.00000000000003" y="206.00000000000003" width="30.6" height="72.0" rx="8" fill="#8dd0f2"/><rect x="197.00000000000003" y="183.50000000000003" width="25.200000000000003" height="94.5" rx="8" fill="#c0e6ff"/><rect x="231.20000000000002" y="165.50000000000003" width="28.8" height="112.5" rx="8" fill="#74b6eb"/><rect x="264.5" y="215.00000000000003" width="25.200000000000003" height="62.99999999999999" rx="8" fill="#9ee0ff"/><rect x="165.60000000000002" y="225.20000000000002" width="7" height="10" rx="2" fill="#d9f3ff" opacity="0.7"/><rect x="179.60000000000002" y="225.20000000000002" width="7" height="10" rx="2" fill="#d9f3ff" opacity="0.7"/><rect x="165.60000000000002" y="243.20000000000002" width="7" height="10" rx="2" fill="#d9f3ff" opacity="0.7"/><rect x="179.60000000000002" y="243.20000000000002" width="7" height="10" rx="2" fill="#d9f3ff" opacity="0.7"/><rect x="165.60000000000002" y="261.20000000000005" width="7" height="10" rx="2" fill="#d9f3ff" opacity="0.7"/><rect x="179.60000000000002" y="261.20000000000005" width="7" height="10" rx="2" fill="#d9f3ff" opacity="0.7"/><rect x="210.60000000000002" y="201.8" width="7" height="10" rx="2" fill="#d9f3ff" opacity="0.7"/><rect x="224.60000000000002" y="201.8" width="7" height="10" rx="2" fill="#d9f3ff" opacity="0.7"/><rect x="210.60000000000002" y="219.8" width="7" height="10" rx="2" fill="#d9f3ff" opacity="0.7"/><rect x="224.60000000000002" y="219.8" width="7" height="10" rx="2" fill="#d9f3ff" opacity="0.7"/><rect x="210.60000000000002" y="237.8" width="7" height="10" rx="2" fill="#d9f3ff" opacity="0.7"/><rect x="224.60000000000002" y="237.8" width="7" height="10" rx="2" fill="#d9f3ff" opacity="0.7"/><rect x="244.80000000000004" y="183.80000000000004" width="7" height="10" rx="2" fill="#d9f3ff" opacity="0.7"/><rect x="258.80000000000007" y="183.80000000000004" width="7" height="10" rx="2" fill="#d9f3ff" opacity="0.7"/><rect x="244.80000000000004" y="201.80000000000004" width="7" height="10" rx="2" fill="#d9f3ff" opacity="0.7"/><rect x="258.80000000000007" y="201.80000000000004" width="7" height="10" rx="2" fill="#d9f3ff" opacity="0.7"/><rect x="244.80000000000004" y="219.80000000000004" width="7" height="10" rx="2" fill="#d9f3ff" opacity="0.7"/><rect x="258.80000000000007" y="219.80000000000004" width="7" height="10" rx="2" fill="#d9f3ff" opacity="0.7"/><rect x="278.1" y="234.20000000000002" width="7" height="10" rx="2" fill="#d9f3ff" opacity="0.7"/><rect x="292.1" y="234.20000000000002" width="7" height="10" rx="2" fill="#d9f3ff" opacity="0.7"/><rect x="278.1" y="252.20000000000002" width="7" height="10" rx="2" fill="#d9f3ff" opacity="0.7"/><rect x="292.1" y="252.20000000000002" width="7" height="10" rx="2" fill="#d9f3ff" opacity="0.7"/><rect x="278.1" y="270.20000000000005" width="7" height="10" rx="2" fill="#d9f3ff" opacity="0.7"/><rect x="292.1" y="270.20000000000005" width="7" height="10" rx="2" fill="#d9f3ff" opacity="0.7"/><circle cx="430.3999999999999" cy="253.59999999999997" r="21.599999999999998" fill="none" stroke="#eaf5ff" stroke-width="5"/><circle cx="497.59999999999997" cy="253.59999999999997" r="21.599999999999998" fill="none" stroke="#eaf5ff" stroke-width="5"/><line x1="430.3999999999999" y1="253.59999999999997" x2="463.99999999999994" y2="229.59999999999997" stroke="#7ce3cf" stroke-width="5" stroke-linecap="round"/><line x1="463.99999999999994" y1="229.59999999999997" x2="473.59999999999997" y2="253.59999999999997" stroke="#7ce3cf" stroke-width="5" stroke-linecap="round"/><line x1="473.59999999999997" y1="253.59999999999997" x2="449.59999999999997" y2="253.59999999999997" stroke="#7ce3cf" stroke-width="5" stroke-linecap="round"/><line x1="463.99999999999994" y1="229.59999999999997" x2="497.59999999999997" y2="253.59999999999997" stroke="#7ce3cf" stroke-width="5" stroke-linecap="round"/><line x1="463.99999999999994" y1="229.59999999999997" x2="461.59999999999997" y2="210.39999999999998" stroke="#7ce3cf" stroke-width="5" stroke-linecap="round"/><line x1="456.79999999999995" y1="210.39999999999998" x2="466.3999999999999" y2="210.39999999999998" stroke="#7ce3cf" stroke-width="5" stroke-linecap="round"/><line x1="485.59999999999997" y1="227.19999999999996" x2="504.79999999999995" y2="219.99999999999997" stroke="#7ce3cf" stroke-width="5" stroke-linecap="round"/><rect x="629.68" y="240.0" width="4.64" height="15.08" rx="6" fill="#7a4a26"/><circle cx="632.0" cy="237.68" r="10.44" fill="#5dcc83"/><circle cx="625.04" cy="241.16" r="8.120000000000001" fill="#78d47a"/><circle cx="638.96" cy="241.16" r="8.120000000000001" fill="#78d47a"/>
</svg>