<svg xmlns="http://www.w3.org/2000/svg" viewBox="0 0 220 220" width="220" height="220">
  <defs>
    <linearGradient id="bg" x1="0" y1="0" x2="1" y2="1">
      <stop offset="0%" stop-color="#2d251c"/>
      <stop offset="100%" stop-color="#5f4728"/>
    </linearGradient>
    <linearGradient id="glass" x1="0" y1="0" x2="1" y2="1">
      <stop offset="0%" stop-color="#ffffff" stop-opacity="0.18"/>
      <stop offset="100%" stop-color="#ffffff" stop-opacity="0.02"/>
    </linearGradient>
    <filter id="shadow" x="-20%" y="-20%" width="140%" height="140%">
      <feDropShadow dx="0" dy="6" stdDeviation="8" flood-color="#000" flood-opacity="0.25"/>
    </filter>
  </defs>
  <rect width="220" height="220" rx="24" fill="url(#bg)"/>
  <rect width="220" height="220" rx="24" fill="url(#glass)"/>
  <rect y="171" width="220" height="49" fill="#111" opacity="0.18"/><line x1="74.80000000000001" y1="72.6" x2="74.80000000000001" y2="132.6" stroke="#f5b642" stroke-width="8" stroke-linecap="round"/><line x1="41.80000000000001" y1="92.39999999999999" x2="107.80000000000001" y2="92.39999999999999" stroke="#f5b642" stroke-width="8" stroke-linecap="round"/><line x1="52.000000000000014" y1="92.39999999999999" x2="44.80000000000001" y2="110.39999999999999" stroke="#f5b642" stroke-width="4" stroke-linecap="round"/><line x1="62.80000000000001" y1="92.39999999999999" x2="55.60000000000001" y2="110.39999999999999" stroke="#f5b642" stroke-width="4" stroke-linecap="round"/><path d="M 41.20000000000001 111.6 q 7.199999999999999 7.199999999999999 14.399999999999999 0" fill="none" stroke="#f5b642" stroke-width="4" stroke-linecap="round" stroke-linejoin="round"/><line x1="97.60000000000001" y1="92.39999999999999" x2="104.80000000000001" y2="110.39999999999999" stroke="#f5b642" stroke-width="4" stroke-linecap="round"/><line x1="86.80000000000001" y1="92.39999999999999" x2="94.00000000000001" y2="110.39999999999999" stroke="#f5b642" stroke-width="4" stroke-linecap="round"/><path d="M 79.60000000000001 111.6 q 7.199999999999999 7.199999999999999 14.399999999999999 0" fill="none" stroke="#f5b642" stroke-width="4" stroke-linecap="round" stroke-linejoin="round"/><rect x="59.20000000000001" y="132.6" width="31.200000000000003" height="6.0" rx="8" fill="#5a3710"/><rect x="118.80000000000001" y="110.0" width="72" height="48" rx="10" fill="#7e4f2b"/><rect x="127.6" y="101.2" width="52" height="10" rx="4" fill="#f5b642"/>
</svg>