<svg xmlns="http://www.w3.org/2000/svg" viewBox="0 0 220 220" width="220" height="220">
  <defs>
    <linearGradient id="bg" x1="0" y1="0" x2="1" y2="1">
      <stop offset="0%" stop-color="#1d3047"/>
      <stop offset="100%" stop-color="#294f73"/>
    </linearGradient>
    <linearGradient id="glass" x1="0" y1="0" x2="1" y2="1">
      <stop offset="0%" stop-color="#ffffff" stop-opacity="0.18"/>
      <stop offset="100%" stop-color="#ffffff" stop-opacity="0.02"/>
    </linearGradient>
    <filter id="shadow" x="-20%" y="-20%" width="140%" height="140%">
      <feDropShadow dx="0" dy="6" stdDeviation="8" flood-color="#000" flood-opacity="0.25"/>
    </filter>
  </defs>
  <rect width="220" height="220" rx="24" fill="url(#bg)"/>
  <rect width="220" height="220" rx="24" fill="url(#glass)"/>
  <rect y="171" width="220" height="49" fill="#111" opacity="0.16"/><path d="M 70.4 79.19999999999999 l 22.400000000000002 7.840000000000001 v 19.040000000000003 q 0 14.56 -22.400000000000002 31.360000000000003 q -22.400000000000002 -16.8 -22.400000000000002 -31.360000000000003 v -19.040000000000003 z" fill="#7ce3cf" stroke="#d7fff5" stroke-width="4" stroke-linecap="round" stroke-linejoin="round"/><line x1="136.4" y1="81.4" x2="136.4" y2="133.4" stroke="#f5b642" stroke-width="8" stroke-linecap="round"/><line x1="107.80000000000001" y1="98.56" x2="165.0" y2="98.56" stroke="#f5b642" stroke-width="8" stroke-linecap="round"/><line x1="116.64" y1="98.56" x2="110.4" y2="114.16" stroke="#f5b642" stroke-width="4" stroke-linecap="round"/><line x1="126.0" y1="98.56" x2="119.76" y2="114.16" stroke="#f5b642" stroke-width="4" stroke-linecap="round"/><path d="M 107.28 115.2 q 6.24 6.24 12.48 0" fill="none" stroke="#f5b642" stroke-width="4" stroke-linecap="round" stroke-linejoin="round"/><line x1="156.16" y1="98.56" x2="162.4" y2="114.16" stroke="#f5b642" stroke-width="4" stroke-linecap="round"/><line x1="146.8" y1="98.56" x2="153.04000000000002" y2="114.16" stroke="#f5b642" stroke-width="4" stroke-linecap="round"/><path d="M 140.56 115.2 q 6.24 6.24 12.48 0" fill="none" stroke="#f5b642" stroke-width="4" stroke-linecap="round" stroke-linejoin="round"/><rect x="122.88000000000001" y="133.4" width="27.04" height="5.2" rx="8" fill="#5a3710"/>
</svg>